<?xml version="1.0" encoding="utf-8"?>
<!-- Generator: Adobe Illustrator 22.1.0, SVG Export Plug-In . SVG Version: 6.00 Build 0)  -->
<svg version="1.1" id="Layer_1" xmlns="http://www.w3.org/2000/svg" xmlns:xlink="http://www.w3.org/1999/xlink" x="0px" y="0px"
	 viewBox="0 0 65.2 65.2" style="enable-background:new 0 0 65.2 65.2;" xml:space="preserve">
<style type="text/css">
	.Arched_x0020_Green{fill:url(#SVGID_1_);stroke:#FFFFFF;stroke-width:0.25;stroke-miterlimit:1;}
	.st0{fill:none;}
	.st1{fill:#E87C1E;stroke:#E87C1E;stroke-width:2;}
</style>
<linearGradient id="SVGID_1_" gradientUnits="userSpaceOnUse" x1="0" y1="65.2002" x2="0.7071" y2="64.4931">
	<stop  offset="0" style="stop-color:#20AC4B"/>
	<stop  offset="0.9831" style="stop-color:#19361A"/>
</linearGradient>
<rect x="1" y="1" class="st0" width="63" height="63"/>
<path class="st1" d="M28,55.3c-2.1,1.3-4.3-1.8-4.5-2.6c-0.3-0.8-0.4-3-0.4-3s-4.6-3.5-4.4-5c0.1-1.6,1.5-4.6,4.6-7
	c1.3-1.1,4.5-1.4,4.5-1.4s-1.2-2.2-3.6-2.7c-1.1-0.2-1.9,0.4-2.4,0.6c-3.4,1.6-5.6,4.5-6.7,4.8c-1.1,0.2-5.4-3.4-5.4-3.4l-1.7,1.8
	c0,0-1.7,1.2-2.3-0.1s-0.4-5.5-0.4-5.5s0.3-1.5,1.2-2c0.9-0.5,7.6,3.8,7.6,3.8l6.8-3.8l0.4-2.7c0,0-5.2-4.3-5.7-6.5
	c-0.7-3,1.3-8.4,3.3-9.5c1.6-0.8,6.6-0.1,8.9,3c2,2.7,1,7.6,1,7.6l2.2,0l1.7-1.4l3.2-1.8l-1.1-2L32,16c0,0-2.1-5.8-0.5-6.8
	s5.7,1,5.7,1l2.2,4c0,0,3.3,2.4,3,3.8c-0.3,1.4-5.1,4.8-6.2,6.8c-1.4,2.6,2.4,4.8,2.4,4.8s2-2.1,3-3.3c1-1.2,4.4-4.1,6.2-4.3
	c1.7-0.1,5.1,3.3,6.7,3c0.7-0.1,4.2-1.1,4.6,0c0.5,1.2-1.3,5.2-2.5,6c-1.2,0.7-7.4-3.4-9.4-2.8c-1.9,0.6-2.8,5.5-4.4,8.6
	c2.4,1.9,3.6,6.3,3,9.9c-0.5,2.9-4.8,9.5-5.9,9c-1.1-0.6,1.5-3.9,1.9-6.5c0.4-2.7-3.7-7.1-5-7.7c-1.3,0.5-3.9,1.2-5.4,1.3
	c-1.4,0-1.8-1-2.7-1.2c-0.9-0.2-4.4,1.7-4.6,2.6c-0.2,0.9,4.1,3.6,4.9,4.4C29.9,49.5,29.9,54.1,28,55.3z"/>
</svg>
